<?xml version="1.0" encoding="utf-8"?>
<!-- Generator: Adobe Illustrator 16.0.3, SVG Export Plug-In . SVG Version: 6.00 Build 0)  -->
<!DOCTYPE svg PUBLIC "-//W3C//DTD SVG 1.1//EN" "http://www.w3.org/Graphics/SVG/1.1/DTD/svg11.dtd">
<svg version="1.1" id="Vrstva_1" xmlns="http://www.w3.org/2000/svg" xmlns:xlink="http://www.w3.org/1999/xlink" x="0px" y="0px"
	 width="256px" height="256px" viewBox="0 0 256 256" enable-background="new 0 0 256 256" xml:space="preserve">
<linearGradient id="SVGID_1_" gradientUnits="userSpaceOnUse" x1="4.882813e-004" y1="4.882813e-004" x2="256.0008" y2="256.0008">
	<stop  offset="0" style="stop-color:#D4155B"/>
	<stop  offset="1" style="stop-color:#F9B03C"/>
</linearGradient>
<rect fill="url(#SVGID_1_)" width="256" height="256"/>
<g id="euro-dolar">
	<path fill-rule="evenodd" clip-rule="evenodd" fill="#FFFFFF" stroke="#FFFFFF" stroke-width="5" stroke-miterlimit="10" d="
		M28.091,156.974c2.4,0,4.8,0,7.721,0c0,2.526-0.036,5.089,0.007,7.648c0.105,6.062-0.043,12.149,0.449,18.184
		c0.682,8.36,7.897,15.355,16.207,16.191c2.182,0.222,4.391,0.209,6.588,0.227c4.164,0.031,8.329,0.009,13.479,0.009
		c-4.7-4.291-8.736-7.98-13.251-12.104c2.691-2.243,4.639-3.863,6.535-5.444c7.101,7.05,14.341,14.233,21.695,21.53
		c-7.399,7.26-14.764,14.485-21.934,21.521c-1.698-1.53-3.536-3.189-5.588-5.04c4.175-4.108,8.11-7.979,12.721-12.518
		c-2.667,0-4.568,0.061-6.463-0.012c-5.846-0.221-11.883,0.356-17.493-0.925c-10.779-2.463-17.474-9.691-20.051-20.559
		c-0.139-0.581-0.412-1.13-0.622-1.693C28.091,174.983,28.091,165.978,28.091,156.974z"/>
	<path fill-rule="evenodd" clip-rule="evenodd" fill="#FFFFFF" stroke="#FFFFFF" stroke-width="5" stroke-miterlimit="10" d="
		M183.611,57.178c4.719,4.445,8.784,8.275,12.884,12.138c-2.141,2.271-3.828,4.062-5.539,5.875
		c-7.476-7.405-14.764-14.623-22.192-21.976c7.399-7.297,14.665-14.46,22.261-21.951c1.446,1.789,3.009,3.72,4.806,5.944
		c-3.673,3.469-7.74,7.31-11.808,11.151c0.125,0.368,0.249,0.733,0.375,1.1c1.242,0,2.485-0.037,3.728,0.006
		c6.457,0.223,13.031-0.222,19.347,0.852c12.092,2.056,20.618,14.035,20.527,24.121c-0.074,8.329-0.016,16.658-0.016,25.157
		c-2.417,0-4.773,0-7.649,0c0-4.167,0.003-8.2,0-12.233c-0.003-3.766,0.071-7.533-0.026-11.295
		c-0.272-10.369-7.715-18.26-18.09-18.833C196.382,56.915,190.514,57.178,183.611,57.178z"/>
	<g>
		<path fill="#FFFFFF" d="M97.434,101.403H83.992c0.145,3.775,1.17,6.566,3.082,8.368c1.909,1.803,5.062,2.703,9.456,2.703
			c2.843,0,5.37-0.429,7.582-1.29l1.854,11.624c-3.82,0.867-7.598,1.3-11.331,1.3c-7.755,0-13.937-2.011-18.547-6.032
			c-4.609-4.021-7.029-9.581-7.259-16.672H61.72V94.51h7.109v-5.213H61.72v-6.895h7.237c0.545-7.122,3.216-12.681,8.013-16.673
			c4.798-3.992,11.129-5.987,19-5.987c3.044,0,6.376,0.444,9.996,1.335l-1.854,11.631c-2.241-0.89-4.637-1.334-7.193-1.334
			c-3.965,0-6.995,0.899-9.091,2.693c-2.096,1.795-3.333,4.573-3.704,8.335h13.311v6.895H83.992v5.213h13.442V101.403z"/>
	</g>
	<path fill-rule="evenodd" clip-rule="evenodd" fill="none" stroke="#FFFFFF" stroke-width="15" stroke-miterlimit="10" d="
		M166.101,101.364c-6.768,0-13.271,1.12-19.34,3.181c-4.441,20.791-19.624,37.603-39.465,44.338
		c-0.87,4.067-1.331,8.289-1.331,12.617c0,33.211,26.922,60.136,60.135,60.136c33.212,0,60.135-26.925,60.135-60.136
		C226.235,128.289,199.313,101.364,166.101,101.364z"/>
	<g>
		<path fill="#FFFFFF" d="M172.317,175.702c0-2.172-0.537-3.877-1.607-5.114c-1.073-1.236-2.956-2.405-5.651-3.506
			c-2.694-1.099-5.181-2.211-7.464-3.341c-2.282-1.125-4.248-2.433-5.898-3.918c-1.648-1.482-2.913-3.201-3.792-5.151
			c-0.881-1.954-1.32-4.318-1.32-7.096c0-4.646,1.567-8.475,4.701-11.485c3.133-3.011,7.313-4.763,12.536-5.258v-8.7h6.559v8.866
			c5.03,0.741,8.981,2.81,11.856,6.206c2.87,3.395,4.31,7.705,4.31,12.928h-13.939c0-2.857-0.551-5.057-1.649-6.596
			c-1.1-1.542-2.668-2.313-4.701-2.313c-1.814,0-3.225,0.571-4.229,1.711c-1.003,1.142-1.505,2.718-1.505,4.724
			c0,2.035,0.578,3.648,1.732,4.846c1.155,1.197,3.01,2.336,5.567,3.423s4.97,2.212,7.237,3.381c2.27,1.169,4.227,2.496,5.877,3.98
			c1.649,1.483,2.941,3.217,3.876,5.195c0.934,1.981,1.402,4.357,1.402,7.134c0,4.702-1.492,8.538-4.475,11.507
			c-2.983,2.968-7.045,4.703-12.187,5.196v8.288h-6.557v-8.329c-5.994-0.635-10.592-2.687-13.795-6.165
			c-3.203-3.478-4.805-8.063-4.805-13.753h13.897c0,3.133,0.695,5.519,2.084,7.154c1.387,1.635,3.361,2.454,5.917,2.454
			c1.87,0,3.341-0.559,4.414-1.67C171.78,179.187,172.317,177.654,172.317,175.702z"/>
	</g>
	
		<circle fill-rule="evenodd" clip-rule="evenodd" fill="none" stroke="#FFFFFF" stroke-width="15" stroke-miterlimit="10" cx="88.135" cy="91.924" r="60.135"/>
</g>
</svg>
